# xmcd
#
# Track frame offsets: 
#        150
#        21589
#        38888
#        52570
#        65394
#        82912
#        97385
#        112931
#        127654
#        153372
#        169127
#        182779
#        201739
#        219211
#        234777
#        247104
#        266939
#        281611
#        303140
#        321614
#        340765
#
# Disc length: 4738 seconds
#
# Revision: 3
# Processed by: cddbd v1.5.2PL0 Copyright (c) Steve Scherf et al.
# Submitted via: ExactAudioCopy v1.0b3
#
DISCID=2a128015
DTITLE=Various Artist - Best Of Italy, The, Vol. 1, Disc 1
DYEAR=2002
DGENRE=Europop, Pop Rock, Ballad
TTITLE0=Adriano Celentano - Attraverso Me
TTITLE1=Riccardo Fogli - Storie Di Tutti I Giorni 
TTITLE2=Pupo - Lo Devo Solo A Te
TTITLE3=Ricchi and Poveri - Mamma Maria
TTITLE4=Toto Cutugno - L'italiano 
TTITLE5=Albano and Romina Power - Felichita
TTITLE6=Matia Bazar - Solo Tu
TTITLE7=Collage - Donna Musica
TTITLE8=Adriano Celentano - Solo Da Un Quatro D'ora
TTITLE9=Ricchi and Poveri - Made In Italy
TTITLE10=Pupo - Buratino
TTITLE11=Matia Bazar - Vacance Romane
TTITLE12=Viola Valentino - Romantici
TTITLE13=Albano and Romina Power - Cisara
TTITLE14=Francesco Napoli - Marina
TTITLE15=Umberto Tozzi - Gloria
TTITLE16=Ricchi and Poveri - Piccolo Amore
TTITLE17=Adriano Celentano - Suzanna
TTITLE18=Fiordaliso - Non Volgio Mica La Luna
TTITLE19=Toto Cutugno - La Mia  Musica
TTITLE20=Riccardo Fogli - Per Lucia
EXTD=
EXTT0=
EXTT1=
EXTT2=
EXTT3=
EXTT4=
EXTT5=
EXTT6=
EXTT7=
EXTT8=
EXTT9=
EXTT10=
EXTT11=
EXTT12=
EXTT13=
EXTT14=
EXTT15=
EXTT16=
EXTT17=
EXTT18=
EXTT19=
EXTT20=
PLAYORDER=
